<svg id="Icon" xmlns="http://www.w3.org/2000/svg" xmlns:xlink="http://www.w3.org/1999/xlink" width="40" height="40" viewBox="0 0 40 40">
  <defs>
    <radialGradient id="radial-gradient" cx="1.063" cy="1" r="1.387" gradientUnits="objectBoundingBox">
      <stop offset="0" stop-color="#cda152"/>
      <stop offset="1" stop-color="#edd185"/>
    </radialGradient>
  </defs>
  <rect id="Base_" data-name="Base " width="40" height="40" rx="15" fill="url(#radial-gradient)"/>
  <g id="Icon-2" data-name="Icon" transform="translate(12 14)" fill="none" stroke-miterlimit="10">
    <path d="M1.957,12A1.944,1.944,0,0,1,0,10.072V1.928A1.944,1.944,0,0,1,1.957,0H14.047A1.942,1.942,0,0,1,16,1.931v8.141A1.944,1.944,0,0,1,14.044,12Z" stroke="none"/>
    <path d="M 14.04360008239746 11.99970054626465 C 15.12270069122314 11.99970054626465 16.00020027160645 11.13570022583008 16.00020027160645 10.07190036773682 L 16.00020027160645 1.931400299072266 C 16.00290107727051 0.8676002621650696 15.12630081176758 2.731323149873788e-07 14.04720020294189 2.731323149873788e-07 L 1.956600546836853 2.731323149873788e-07 C 0.8775005340576172 2.731323149873788e-07 5.386352768255165e-07 0.8649002909660339 5.386352768255165e-07 1.927800297737122 L 5.386352768255165e-07 10.07190036773682 C 5.386352768255165e-07 11.13570022583008 0.8775005340576172 11.99970054626465 1.956600546836853 11.99970054626465 L 14.04360008239746 11.99970054626465 M 14.04360008239746 13.99970054626465 L 1.956600546836853 13.99970054626465 C -0.2250794619321823 13.99970054626465 -1.999999403953552 12.23770046234131 -1.999999403953552 10.07190036773682 L -1.999999403953552 1.927800297737122 C -1.999999403953552 -0.2379997223615646 -0.2250794619321823 -1.999999761581421 1.956600546836853 -1.999999761581421 L 14.04720020294189 -1.999999761581421 C 15.10916042327881 -1.999999761581421 16.10621070861816 -1.586749672889709 16.85468101501465 -0.8363797068595886 C 17.59480857849121 -0.09437453001737595 18.00150871276855 0.8884405493736267 18.00020027160645 1.931400299072266 L 18.00020027160645 10.07190036773682 C 18.00020027160645 12.23770046234131 16.22528076171875 13.99970054626465 14.04360008239746 13.99970054626465 Z" stroke="none" fill="#000"/>
  </g>
</svg>
