<svg id="Icon" xmlns="http://www.w3.org/2000/svg" xmlns:xlink="http://www.w3.org/1999/xlink" width="40" height="40" viewBox="0 0 40 40">
  <defs>
    <radialGradient id="radial-gradient" cx="1.063" cy="1" r="1.387" gradientUnits="objectBoundingBox">
      <stop offset="0" stop-color="#cda152"/>
      <stop offset="1" stop-color="#edd185"/>
    </radialGradient>
  </defs>
  <rect id="Base_" data-name="Base " width="40" height="40" rx="15" fill="url(#radial-gradient)"/>
  <path id="Icon-2" data-name="Icon" d="M6.4,16h0a31.222,31.222,0,0,1-3.2-3.225C1.74,11.064,0,8.57,0,6.4A6.067,6.067,0,0,1,6.4,0a6.643,6.643,0,0,1,4.361,1.628A6.145,6.145,0,0,1,12.8,6.4c0,2.17-1.74,4.664-3.2,6.375A31.222,31.222,0,0,1,6.4,16Zm0-11.6a2,2,0,1,0,2,2A2,2,0,0,0,6.4,4.4Z" transform="translate(14 12)" fill="none" stroke="#000" stroke-miterlimit="10" stroke-width="2"/>
</svg>
