<svg xmlns="http://www.w3.org/2000/svg" xmlns:xlink="http://www.w3.org/1999/xlink" width="242.933" height="193.999" viewBox="0 0 242.933 193.999">
  <defs>
    <linearGradient id="linear-gradient" x1="0.5" y1="1" x2="0.5" gradientUnits="objectBoundingBox">
      <stop offset="0" stop-color="gray" stop-opacity="0.251"/>
      <stop offset="0.54" stop-color="gray" stop-opacity="0.122"/>
      <stop offset="1" stop-color="gray" stop-opacity="0.102"/>
    </linearGradient>
    <linearGradient id="linear-gradient-2" x1="0" y1="0.5" x2="1" y2="0.5" xlink:href="#linear-gradient"/>
    <linearGradient id="linear-gradient-3" x1="0" y1="0.5" x2="1" y2="0.5" xlink:href="#linear-gradient"/>
    <radialGradient id="radial-gradient" cx="1.063" cy="1" r="1.387" gradientUnits="objectBoundingBox">
      <stop offset="0" stop-color="#cda152"/>
      <stop offset="1" stop-color="#edd185"/>
    </radialGradient>
    <linearGradient id="linear-gradient-5" x1="0.5" y1="1" x2="0.5" gradientUnits="objectBoundingBox">
      <stop offset="0" stop-color="gray" stop-opacity="0.58"/>
      <stop offset="0.54" stop-color="gray" stop-opacity="0.122"/>
      <stop offset="1" stop-color="gray" stop-opacity="0.102"/>
    </linearGradient>
  </defs>
  <g id="Image" transform="translate(-0.169 -0.001)">
    <path id="Rectangle" d="M.071.116,70.235,0l-.071,43.337L0,43.453Z" transform="translate(0.169 118.54) rotate(-16.6)" fill="url(#linear-gradient)"/>
    <path id="Rectangle-2" data-name="Rectangle" d="M.066.112,67.853,0l-.066,40.446L0,40.557Z" transform="translate(1.304 119.326) rotate(-16.6)" fill="#fff"/>
    <g id="Group" transform="translate(6 119)" opacity="0.6">
      <path id="Rectangle-3" data-name="Rectangle" d="M.048.065,8.607,0,8.558,6.481,0,6.547Z" transform="translate(10.142 6.442) rotate(163.4)"/>
      <path id="Rectangle-4" data-name="Rectangle" d="M.016.251,32.882,0l-.016,2.1L0,2.352Z" transform="translate(43.631 9.561) rotate(163.4)"/>
      <path id="Rectangle-5" data-name="Rectangle" d="M.01.183,23.976,0l-.01,1.4L0,1.584Z" transform="translate(44.875 13.87) rotate(163.4)"/>
    </g>
    <path id="Rectangle-6" data-name="Rectangle" d="M.079.049,43.428,0l-.079,70.145L0,70.194Z" transform="matrix(0.191, -0.982, 0.982, 0.191, 163.905, 42.629)" fill="url(#linear-gradient-2)"/>
    <path id="Rectangle-7" data-name="Rectangle" d="M.077.045,40.533,0l-.077,67.768L0,67.813Z" transform="matrix(0.191, -0.982, 0.982, 0.191, 165.097, 41.013)" fill="#fff"/>
    <g id="Group-2" data-name="Group" transform="translate(173 4)" opacity="0.6">
      <rect id="Rectangle-8" data-name="Rectangle" width="8.708" height="6.452" transform="matrix(-0.982, -0.191, 0.191, -0.982, 8.572, 8.046)"/>
      <path id="Rectangle-9" data-name="Rectangle" d="M0,0,33.436.008V2.1L0,2.091Z" transform="matrix(-0.982, -0.191, 0.191, -0.982, 37.458, 26.468)"/>
      <path id="Rectangle-10" data-name="Rectangle" d="M0,0,24.38.005V1.4L0,1.395Z" transform="matrix(-0.982, -0.191, 0.191, -0.982, 36.593, 30.919)"/>
    </g>
    <path id="Rectangle-11" data-name="Rectangle" d="M.154.095,43.294,0,43.14,70.485,0,70.58Z" transform="translate(175.296 101.261) rotate(-23.45)" fill="url(#linear-gradient-3)"/>
    <path id="Rectangle-12" data-name="Rectangle" d="M.149.088,40.41,0l-.149,68.1L0,68.185Z" transform="translate(177.296 101.336) rotate(-23.45)" fill="#fff"/>
    <g id="Group-3" data-name="Group" transform="translate(198 89)" opacity="0.6">
      <path id="Rectangle-13" data-name="Rectangle" d="M.049.067,8.667,0,8.618,6.47,0,6.536Z" transform="translate(12.903 11.429) rotate(-113.45)" fill="url(#radial-gradient)"/>
      <path id="Rectangle-14" data-name="Rectangle" d="M.016.256,33.111,0l-.016,2.1L0,2.353Z" transform="translate(13.904 45.237) rotate(-113.45)" fill="url(#radial-gradient)"/>
      <path id="Rectangle-15" data-name="Rectangle" d="M.011.186,24.142,0l-.011,1.4L0,1.585Z" transform="translate(9.781 46.981) rotate(-113.45)" fill="url(#radial-gradient)"/>
    </g>
    <path id="Rectangle-16" data-name="Rectangle" d="M.082.133,70.259,0l-.082,43.329L0,43.462Z" transform="translate(18.87 23.792) rotate(-19.53)" fill="url(#linear-gradient)"/>
    <path id="Rectangle-17" data-name="Rectangle" d="M.076.128,67.875,0,67.8,40.438,0,40.567Z" transform="translate(20.047 24.524) rotate(-19.53)" fill="#fff"/>
    <g id="Group-4" data-name="Group" transform="translate(24 24)" opacity="0.6">
      <path id="Rectangle-18" data-name="Rectangle" d="M.021.028,8.654,0,8.633,6.44,0,6.469Z" transform="translate(10.551 6.187) rotate(160.47)" fill="url(#radial-gradient)"/>
      <path id="Rectangle-19" data-name="Rectangle" d="M.007.109,33.16,0l-.007,2.088L0,2.2Z" transform="translate(44.463 7.433) rotate(160.47)" fill="url(#radial-gradient)"/>
      <path id="Rectangle-20" data-name="Rectangle" d="M0,.079,24.178,0l0,1.393L0,1.472Z" transform="translate(45.95 11.674) rotate(160.47)" fill="url(#radial-gradient)"/>
    </g>
    <path id="Path" d="M82,0,0,77.249V191H164V77.249L82,0Z" transform="translate(42 3)" fill="#fff"/>
    <path id="Path-2" data-name="Path" d="M162,188H0V76.034L81,0l81,76.034V188Z" transform="translate(43 6)" fill="url(#linear-gradient-5)"/>
    <rect id="Rectangle-21" data-name="Rectangle" width="113" height="133" transform="translate(65 19)" fill="#ececec"/>
    <rect id="Rectangle-22" data-name="Rectangle" width="109" height="132" transform="translate(67 21)" fill="#fff"/>
    <path id="Path-3" data-name="Path" d="M0,0,80,56,0,112V0Z" transform="translate(41 80)" fill="#cea058"/>
    <path id="Path-4" data-name="Path" d="M80,0,0,56l80,56V0Z" transform="translate(122 80)" fill="#cea058"/>
    <path id="Path-5" data-name="Path" d="M0,62,77.82,1.107a5.113,5.113,0,0,1,6.354,0L162,62Z" transform="translate(41 129)" fill="url(#linear-gradient)"/>
    <path id="Path-6" data-name="Path" d="M0,59,77.82,1.053a5.32,5.32,0,0,1,6.354,0L162,59Z" transform="translate(41 132)" fill="#f9d874"/>
    <rect id="Rectangle-23" data-name="Rectangle" width="23" height="4" transform="translate(84 46)" fill="url(#radial-gradient)"/>
    <rect id="Rectangle-24" data-name="Rectangle" width="77" height="4" transform="translate(83 56)" fill="#ececec"/>
    <rect id="Rectangle-25" data-name="Rectangle" width="77" height="4" transform="translate(83 63)" fill="#ececec"/>
    <rect id="Rectangle-26" data-name="Rectangle" width="77" height="4" transform="translate(83 70)" fill="#ececec"/>
    <rect id="Rectangle-27" data-name="Rectangle" width="77" height="4" transform="translate(83 76)" fill="#ececec"/>
    <rect id="Rectangle-28" data-name="Rectangle" width="34" height="4" transform="translate(84 83)" fill="#ececec"/>
    <rect id="Rectangle-29" data-name="Rectangle" width="34" height="4" transform="translate(126 83)" fill="url(#radial-gradient)"/>
  </g>
</svg>
